<?xml version="1.0" encoding="iso-8859-1"?>
<!-- Generator: Adobe Illustrator 19.0.0, SVG Export Plug-In . SVG Version: 6.00 Build 0)  -->
<svg version="1.1" id="Capa_1" xmlns="http://www.w3.org/2000/svg" xmlns:xlink="http://www.w3.org/1999/xlink" x="0px" y="0px"
	 viewBox="0 0 512 512" style="enable-background:new 0 0 512 512;" xml:space="preserve">
<g>
	<g>
		<path d="M504.396,210.617h-27.174c-4.199,0-7.604,3.405-7.604,7.604v21.201h-12.365V218.22c0-4.199-3.405-7.604-7.604-7.604
			h-30.014c-4.199,0-7.604,3.405-7.604,7.604v21.201h-12.365V218.22c0-4.199-3.405-7.604-7.604-7.604h-27.174
			c-4.199,0-7.604,3.405-7.604,7.604v57.609v24.334h-20.587V184.589h18.595c2.495,0,4.92-1.105,6.373-3.133
			c2.248-3.138,1.803-7.297-0.811-9.879l-97.251-96.108V59.888h62.735c2.256,0,4.468-0.891,5.945-2.597
			c2.32-2.681,2.468-6.481,0.558-9.286l-12.295-18.061l12.295-18.061c1.91-2.805,1.762-6.605-0.558-9.286
			C330.806,0.891,328.594,0,326.338,0H256c-4.199,0-7.604,3.405-7.604,7.604v44.68v23.185l-97.094,95.953
			c-1.775,1.754-2.723,4.246-2.332,6.711c0.606,3.812,3.847,6.455,7.521,6.455h18.811v43.589c0,4.199,3.405,7.604,7.604,7.604
			c4.199,0,7.604-3.405,7.604-7.604v-43.589H321.49v123.14c0,0.013-0.002,0.026-0.002,0.04v23.501H309.13v-23.501
			c0-4.199-3.405-7.604-7.604-7.604h-31.745c-4.199,0-7.604,3.405-7.604,7.604v23.501h-12.359v-23.501
			c0-4.199-3.405-7.604-7.604-7.604h-31.734c-4.199,0-7.604,3.405-7.604,7.604v23.501h-12.369v-23.501c0-0.001,0-0.002,0-0.002
			l0.002-0.001v-44.101c0-4.199-3.405-7.604-7.604-7.604s-7.604,3.405-7.604,7.604v36.499h-20.587v-24.334v-57.609
			c0-4.199-3.405-7.604-7.604-7.604h-27.174c-4.199,0-7.604,3.405-7.604,7.604v21.201H99.969v-21.201
			c0-4.199-3.405-7.604-7.604-7.604H62.35c-4.199,0-7.604,3.405-7.604,7.604v21.201H42.381v-21.201c0-4.199-3.405-7.604-7.604-7.604
			H7.604c-4.199,0-7.604,3.405-7.604,7.604v57.609c0,4.199,3.405,7.604,7.604,7.604h17.849v220.964c0,4.199,3.405,7.604,7.604,7.604
			H147.11c0.007,0,0.013-0.001,0.019-0.001h217.74c0.006,0,0.013,0.001,0.019,0.001h114.054c4.199,0,7.604-3.405,7.604-7.604
			V363.019c0-4.199-3.405-7.604-7.604-7.604s-7.604,3.405-7.604,7.604v133.773h-98.843V307.767c0-0.02-0.003-0.039-0.003-0.059
			v-24.275h98.846v44.1c0,4.199,3.405,7.604,7.604,7.604s7.604-3.405,7.604-7.604v-44.1h17.849c4.199,0,7.604-3.405,7.604-7.604
			V218.22C512,214.021,508.596,210.617,504.396,210.617z M263.604,15.208h48.576l-7.118,10.457
			c-1.759,2.582-1.759,5.977-0.001,8.558l7.118,10.457h-48.575V15.208z M139.506,496.792H40.661V283.433h98.845V496.792z
			 M139.507,268.225H33.057H15.208v-42.401h11.966v21.201c0,4.199,3.405,7.604,7.604,7.604H62.35c4.199,0,7.604-3.405,7.604-7.604
			v-21.201h14.806v21.201c0,4.199,3.405,7.604,7.604,7.604h27.573c4.199,0,7.604-3.405,7.604-7.604v-21.201h11.966V268.225z
			 M182.906,169.381h-7.903L256,89.336l80.997,80.044h-7.903H182.906z M248.396,496.333h-36.497v-66.912
			c0-21.723,15.792-39.815,36.497-43.431V496.333z M300.1,496.334h-36.496V385.991c20.704,3.615,36.496,21.708,36.496,43.431
			V496.334z M357.287,496.791H315.31v-67.37c0-32.702-26.605-59.308-59.308-59.308c-32.702,0-59.308,26.606-59.308,59.308v67.37
			h-41.973v-181.42h20.579v23.501c0,4.199,3.405,7.604,7.604,7.604h27.577c4.199,0,7.604-3.405,7.604-7.604v-23.501h16.526v23.501
			c0,4.199,3.405,7.604,7.604,7.604h27.567c4.2,0,7.604-3.405,7.604-7.604v-23.501h16.537v23.501c0,4.199,3.404,7.604,7.604,7.604
			h27.566c4.2,0,7.604-3.405,7.604-7.604v-23.501h20.59V496.791z M496.792,268.225h-17.848h-106.45v-42.401h11.966v21.201
			c0,4.199,3.404,7.604,7.604,7.604h27.573c4.2,0,7.604-3.405,7.604-7.604v-21.201h14.806v21.201c0,4.199,3.404,7.604,7.604,7.604
			h27.573c4.2,0,7.604-3.405,7.604-7.604v-21.201h11.965V268.225z"/>
	</g>
</g>
<g>
	<g>
		<path d="M87.802,306.243c-15.932,0-28.894,12.962-28.894,28.894v45.622c0,4.199,3.405,7.604,7.604,7.604h42.58
			c4.199,0,7.604-3.405,7.604-7.604v-45.622C116.696,319.205,103.734,306.243,87.802,306.243z M101.489,373.155H74.116v-38.018
			c0-7.546,6.14-13.686,13.686-13.686c7.546,0,13.686,6.14,13.686,13.686V373.155z"/>
	</g>
</g>
<g>
	<g>
		<path d="M448.212,335.137c0-15.932-12.961-28.894-28.894-28.894c-15.933,0-28.894,12.962-28.894,28.894v45.622
			c0,4.199,3.404,7.604,7.604,7.604h42.58c4.2,0,7.604-3.405,7.604-7.604L448.212,335.137L448.212,335.137z M433.004,373.155
			h-27.372v-38.018c0-7.546,6.14-13.686,13.686-13.686c7.546,0,13.686,6.14,13.686,13.686V373.155z"/>
	</g>
</g>
<g>
	<g>
		<path d="M256.001,197.259c-15.932,0-28.894,12.962-28.894,28.894v45.622h-0.001c0,4.199,3.405,7.604,7.604,7.604h42.581
			c4.2,0,7.604-3.405,7.604-7.604v-45.622C284.895,210.221,271.934,197.259,256.001,197.259z M269.687,264.171h-27.372v-38.018
			h-0.001c0-7.546,6.14-13.686,13.686-13.686s13.687,6.14,13.687,13.686V264.171z"/>
	</g>
</g>
<g>
	<g>
		<path d="M80.199,415.735h-21.29c-4.199,0-7.604,3.405-7.604,7.604c0,4.199,3.404,7.604,7.604,7.604h21.29
			c4.199,0,7.604-3.405,7.604-7.604C87.803,419.139,84.399,415.735,80.199,415.735z"/>
	</g>
</g>
<g>
	<g>
		<path d="M104.53,440.067H83.241c-4.199,0-7.604,3.405-7.604,7.604c0,4.199,3.405,7.604,7.604,7.604h21.29
			c4.199,0,7.604-3.405,7.604-7.604C112.135,443.471,108.73,440.067,104.53,440.067z"/>
	</g>
</g>
<g>
	<g>
		<path d="M414.757,415.735h-21.29c-4.2,0-7.604,3.405-7.604,7.604c0,4.199,3.404,7.604,7.604,7.604h21.29
			c4.2,0,7.604-3.405,7.604-7.604C422.36,419.139,418.957,415.735,414.757,415.735z"/>
	</g>
</g>
<g>
	<g>
		<path d="M439.087,440.067h-21.29c-4.2,0-7.604,3.405-7.604,7.604c0,4.199,3.405,7.604,7.604,7.604h21.29
			c4.2,0,7.604-3.405,7.604-7.604C446.691,443.471,443.288,440.067,439.087,440.067z"/>
	</g>
</g>
<g>
	<g>
		<path d="M340.241,370.113h-21.29c-4.2,0-7.604,3.405-7.604,7.604s3.405,7.604,7.604,7.604h21.29c4.2,0,7.604-3.405,7.604-7.604
			S344.441,370.113,340.241,370.113z"/>
	</g>
</g>
<g>
	<g>
		<path d="M224.179,190.669h-21.29c-4.199,0-7.604,3.405-7.604,7.604s3.405,7.604,7.604,7.604h21.29
			c4.199,0,7.604-3.405,7.604-7.604S228.378,190.669,224.179,190.669z"/>
	</g>
</g>
<g>
	<g>
		<path d="M191.211,388.362h-21.29c-4.199,0-7.604,3.405-7.604,7.604c0,4.199,3.405,7.604,7.604,7.604h21.29
			c4.199,0,7.604-3.404,7.604-7.604C198.815,391.766,195.411,388.362,191.211,388.362z"/>
	</g>
</g>
<g>
</g>
<g>
</g>
<g>
</g>
<g>
</g>
<g>
</g>
<g>
</g>
<g>
</g>
<g>
</g>
<g>
</g>
<g>
</g>
<g>
</g>
<g>
</g>
<g>
</g>
<g>
</g>
<g>
</g>
</svg>
